Coordinates
version=1
nRows=13
nColumns=63
inDegrees=yes

Units are S.I. units (second, meters, Newtons, ...)
If the header above contains a line with 'inDegrees', this indicates whether rotational values are in degrees (yes) or radians (no).

endheader
time	pelvis_tilt	pelvis_list	pelvis_rotation	pelvis_tx	pelvis_ty	pelvis_tz	hip_flexion_r	hip_adduction_r	hip_rotation_r	knee_angle_r	knee_angle_r_beta	ankle_angle_r	subtalar_angle_r	mtp_angle_r	hip_flexion_l	hip_adduction_l	hip_rotation_l	knee_angle_l	knee_angle_l_beta	ankle_angle_l	subtalar_angle_l	mtp_angle_l	L5_S1_Flex_Ext	L5_S1_Lat_Bending	L5_S1_axial_rotation	L4_L5_Flex_Ext	L4_L5_Lat_Bending	L4_L5_axial_rotation	L3_L4_Flex_Ext	L3_L4_Lat_Bending	L3_L4_axial_rotation	L2_L3_Flex_Ext	L2_L3_Lat_Bending	L2_L3_axial_rotation	L1_L2_Flex_Ext	L1_L2_Lat_Bending	L1_L2_axial_rotation	L1_T12_Flex_Ext	L1_T12_Lat_Bending	L1_T12_axial_rotation	Abs_r3	Abs_r2	Abs_r1	Abs_t1	Abs_t2	neck_flexion	neck_bending	neck_rotation	arm_flex_r	arm_add_r	arm_rot_r	elbow_flex_r	pro_sup_r	wrist_flex_r	wrist_dev_r	arm_flex_l	arm_add_l	arm_rot_l	elbow_flex_l	pro_sup_l	wrist_flex_l	wrist_dev_l
4.355932	1.806632	-2.670112	114.952252	0.341441	0.498678	0.889324	-1.518642	-0.703206	-21.355360	8.286815	0.144632	21.268326	16.364621	0.000000	-2.312866	1.156501	11.000545	1.166073	0.020352	16.467129	-13.469920	0.000000	0.088108	-0.217206	-1.307976	0.163625	-0.288884	-1.389725	0.144752	-0.528114	-1.389725	0.100698	-0.528114	-1.144479	0.081817	-0.442926	-1.062731	0.050345	-0.336452	-0.980982	0.629344	-2.457076	-7.274573	0.000000	0.000000	26.982768	2.302581	3.018694	-0.357980	-10.616530	150.126541	2.959902	44.840655	-1.803807	-2.111719	-5.456830	-12.672408	139.774477	3.167299	18.743844	-9.267652	-7.028896
4.372881	1.985626	-3.021146	115.291302	0.341668	0.498235	0.891549	-0.824221	-0.746080	-21.921860	8.527134	0.148827	21.382021	16.611073	0.000000	-1.609111	1.152407	10.746052	1.285143	0.022430	16.627193	-12.574830	0.000000	0.130973	-0.211949	-1.357935	0.243230	-0.281892	-1.442806	0.215176	-0.515332	-1.442806	0.149689	-0.515332	-1.188193	0.121622	-0.432205	-1.103322	0.074838	-0.328308	-1.018451	0.935528	-2.397604	-7.552429	0.000000	0.000000	27.369611	2.251211	2.682905	0.495282	-11.337875	143.133370	3.989791	39.656828	-1.031660	-2.163665	-3.720532	-12.846564	150.166331	2.018417	18.656674	-10.274815	-5.726688
4.389831	2.165552	-3.364075	115.627850	0.342037	0.497990	0.893794	-0.139025	-0.760953	-22.343847	8.677014	0.151442	21.485373	16.787795	0.000000	-0.877175	1.132496	10.161674	1.426202	0.024892	16.933620	-11.143859	0.000000	0.173586	-0.209459	-1.391105	0.322366	-0.278581	-1.478050	0.285184	-0.509279	-1.478050	0.198391	-0.509279	-1.217217	0.161192	-0.427129	-1.130273	0.099187	-0.324452	-1.043329	1.239906	-2.369445	-7.736911	0.000000	0.000000	27.687605	2.226932	2.208502	1.324447	-12.099470	134.223013	5.266953	32.952480	0.068903	-2.319808	-2.062802	-13.036361	158.945488	1.242286	19.491223	-11.421132	-4.527790
4.406780	2.332419	-3.662606	115.954512	0.342541	0.497892	0.895974	0.490597	-0.745472	-22.621299	8.753184	0.152772	21.587772	16.886033	0.000000	-0.174922	1.094235	9.364182	1.578708	0.027554	17.344612	-9.374153	0.000000	0.212594	-0.211366	-1.408446	0.394808	-0.281116	-1.496473	0.349270	-0.513915	-1.496473	0.242973	-0.513915	-1.232390	0.197414	-0.431017	-1.144362	0.121476	-0.327405	-1.056334	1.518535	-2.391011	-7.833352	0.000000	0.000000	27.887229	2.252371	1.520846	2.242472	-12.331612	130.993054	5.621030	27.435495	0.457457	-3.286149	-0.538798	-13.272085	165.129363	0.816577	20.524222	-12.287258	-3.595072
4.423729	2.458353	-3.881577	116.254301	0.343200	0.497893	0.897995	1.002142	-0.705272	-22.742581	8.750018	0.152717	21.686920	16.891824	0.000000	0.433245	1.045557	8.385050	1.734998	0.030281	17.847604	-7.338870	0.000000	0.244075	-0.219642	-1.412678	0.453271	-0.292123	-1.500971	0.400990	-0.534037	-1.500971	0.278953	-0.534037	-1.236094	0.226648	-0.447893	-1.147801	0.139464	-0.340225	-1.059509	1.743402	-2.484631	-7.856893	0.000000	0.000000	27.921930	2.339867	0.638143	3.048272	-12.364745	128.546097	5.893605	22.134866	0.588082	-4.175596	0.802312	-13.574177	167.558848	0.822179	22.240230	-12.574216	-2.843120
4.440678	2.525262	-4.011186	116.532742	0.344003	0.497965	0.899758	1.362187	-0.648852	-22.740495	8.668800	0.151299	21.779414	16.814258	0.000000	0.910735	0.997292	7.415370	1.881954	0.032846	18.354507	-5.326385	0.000000	0.266675	-0.235780	-1.409061	0.495241	-0.313587	-1.497128	0.438120	-0.573276	-1.497128	0.304782	-0.573276	-1.232929	0.247634	-0.480803	-1.144862	0.152378	-0.365223	-1.056796	1.904830	-2.667191	-7.836777	0.000000	0.000000	27.784819	2.495331	-0.394863	3.734548	-12.204354	126.416368	6.080490	17.572093	0.482662	-5.070626	1.897531	-13.989533	165.584196	1.396312	25.317570	-12.273998	-2.173348
4.457627	2.538344	-4.035640	116.779401	0.344892	0.498132	0.901230	1.550619	-0.570713	-22.653765	8.515260	0.148619	21.854368	16.706447	0.000000	1.242602	0.940438	6.405907	2.032522	0.035474	18.871319	-3.291879	0.000000	0.278723	-0.256426	-1.395103	0.517616	-0.341046	-1.482297	0.457914	-0.623474	-1.482297	0.318552	-0.623474	-1.220715	0.258822	-0.522903	-1.133521	0.159262	-0.397204	-1.046327	1.990889	-2.900740	-7.759145	0.000000	0.000000	27.455658	2.656477	-1.525186	4.312912	-11.898563	124.802980	6.176376	13.610685	0.271477	-6.040094	2.856816	-14.612932	159.677696	2.497418	29.942167	-11.655092	-1.665563
4.474576	2.565138	-3.960762	116.968515	0.345662	0.498425	0.902389	1.596759	-0.424674	-22.469110	8.293354	0.144746	21.869155	16.580565	0.000000	1.446253	0.827789	5.382228	2.174809	0.037958	19.365557	-1.327066	0.000000	0.284538	-0.268635	-1.373792	0.528416	-0.357284	-1.459654	0.467468	-0.653159	-1.459654	0.325199	-0.653159	-1.202068	0.264222	-0.547800	-1.116206	0.162585	-0.416115	-1.030344	2.032429	-3.038851	-7.640620	0.000000	0.000000	26.967921	2.776476	-2.513059	4.794127	-11.555055	123.341062	6.188700	10.871411	-0.044773	-7.121033	4.209978	-14.846769	159.294858	2.237573	30.604493	-10.790317	-1.885534
4.491525	2.585517	-3.788343	117.085370	0.346352	0.498819	0.903211	1.494643	-0.228764	-22.159547	8.010025	0.139801	21.836992	16.397353	0.000000	1.510823	0.678261	4.346250	2.308298	0.040287	19.827198	0.534899	0.000000	0.281879	-0.274453	-1.339663	0.523478	-0.365022	-1.423392	0.463099	-0.667304	-1.423392	0.322160	-0.667304	-1.172205	0.261753	-0.559664	-1.088476	0.161066	-0.425127	-1.004747	2.013435	-3.104662	-7.450801	0.000000	0.000000	26.358234	2.845800	-3.348053	5.199479	-11.215218	122.177291	6.150767	8.969529	-0.266424	-8.335868	5.496213	-14.990428	158.114452	1.902029	30.932121	-9.620496	-2.323623
4.508475	2.603321	-3.541143	117.109621	0.346944	0.499306	0.903682	1.270274	0.004532	-21.721508	7.673356	0.133925	21.751432	16.166462	0.000000	1.453081	0.500793	3.302065	2.428919	0.042393	20.238842	2.253383	0.000000	0.273010	-0.272597	-1.288297	0.507006	-0.362554	-1.368816	0.448528	-0.662792	-1.368816	0.312023	-0.662792	-1.127260	0.253517	-0.555880	-1.046742	0.155998	-0.422253	-0.966223	1.950081	-3.083672	-7.165123	0.000000	0.000000	25.664967	2.876225	-3.943745	5.522321	-10.935354	120.901546	6.061454	7.707098	-0.203533	-9.620727	6.683153	-15.045164	156.123927	1.490589	30.378407	-8.228901	-3.281667
4.525424	2.614865	-3.236959	117.032035	0.347469	0.499875	0.903803	0.943385	0.261443	-21.164550	7.296502	0.127348	21.612041	15.882775	0.000000	1.287844	0.306670	2.278491	2.538658	0.044308	20.579165	3.756474	0.000000	0.258997	-0.263795	-1.216762	0.480984	-0.350848	-1.292809	0.425507	-0.641392	-1.292809	0.296008	-0.641392	-1.064666	0.240505	-0.537931	-0.988619	0.147991	-0.408619	-0.912571	1.849993	-2.984104	-6.767263	0.000000	0.000000	24.926889	2.858874	-4.286817	5.747210	-10.772541	118.808505	5.993596	6.502050	0.251442	-10.658674	7.757158	-15.029664	153.770363	1.032896	28.398654	-6.853276	-4.837091
4.542373	2.600765	-2.898912	116.855497	0.347981	0.500516	0.903569	0.533801	0.511351	-20.520991	6.901603	0.120456	21.415216	15.545215	0.000000	1.025956	0.122778	1.352199	2.634968	0.045989	20.815947	4.935780	0.000000	0.241661	-0.252685	-1.129243	0.448788	-0.336070	-1.199821	0.397025	-0.614377	-1.199821	0.276194	-0.614377	-0.988087	0.224406	-0.515274	-0.917510	0.138085	-0.391408	-0.846932	1.726159	-2.858418	-6.280510	0.000000	0.000000	24.166920	2.836430	-4.401415	5.889523	-10.710138	115.953112	6.007417	5.201249	0.875339	-11.339847	8.726975	-14.974721	151.119184	0.639997	25.465725	-5.719043	-6.755907
4.559322	2.545365	-2.544016	116.597754	0.348517	0.501222	0.902994	0.054781	0.730226	-19.835480	6.510621	0.113632	21.156732	15.151337	0.000000	0.681301	-0.030067	0.576989	2.726004	0.047578	20.920781	5.721875	0.000000	0.222359	-0.243501	-1.028468	0.412942	-0.323856	-1.092747	0.365313	-0.592048	-1.092747	0.254134	-0.592048	-0.899909	0.206482	-0.496547	-0.835630	0.127056	-0.377183	-0.771351	1.588285	-2.754529	-5.720029	0.000000	0.000000	23.409117	2.839063	-4.358858	5.987701	-10.695467	112.801925	6.074928	4.153232	1.552788	-11.754643	9.628553	-14.928028	148.124032	0.476391	22.076323	-4.922009	-8.874402
